<?xml version="1.0" standalone="no"?>
<!DOCTYPE svg PUBLIC "-//W3C//DTD SVG 20010904//EN"
 "http://www.w3.org/TR/2001/REC-SVG-20010904/DTD/svg10.dtd">
<svg version="1.0" xmlns="http://www.w3.org/2000/svg"
 width="512.000000pt" height="512.000000pt" viewBox="0 0 512.000000 512.000000"
 preserveAspectRatio="xMidYMid meet">

<g transform="translate(0.000000,512.000000) scale(0.100000,-0.100000)"
fill="#000000" stroke="none">
<path d="M710 4981 c-43 -13 -84 -38 -111 -68 -50 -53 -63 -92 -69 -198 l-5
-100 -205 -5 c-229 -6 -244 -10 -290 -78 l-25 -36 -3 -1455 c-1 -801 0 -1466
3 -1478 3 -13 19 -30 36 -39 26 -13 36 -13 60 -3 17 6 34 20 39 30 6 11 10
435 10 1123 l0 1106 184 0 c177 0 186 1 211 23 34 29 37 80 6 110 -20 21 -32
22 -211 25 l-190 4 2 256 3 257 188 3 187 2 0 -92 c0 -69 5 -103 19 -133 53
-114 213 -184 276 -120 14 13 25 35 25 48 0 31 -36 77 -59 77 -38 0 -82 23
-96 51 -9 17 -15 56 -15 99 l0 70 369 0 369 0 4 -97 c6 -139 45 -205 148 -252
93 -42 170 -16 170 57 0 41 -27 67 -76 76 -22 4 -49 17 -61 29 -20 18 -23 30
-23 104 l0 83 364 0 363 0 5 -93 c4 -79 10 -102 34 -147 16 -29 43 -64 61 -77
69 -53 167 -69 203 -33 53 53 28 114 -55 135 -71 19 -85 41 -85 136 l0 79 370
0 370 0 0 -82 c0 -116 12 -152 73 -212 78 -77 175 -99 222 -51 50 49 20 116
-57 130 -62 12 -82 44 -87 136 l-3 79 371 0 371 0 0 -77 c0 -97 12 -141 53
-195 65 -84 198 -126 244 -75 29 32 33 49 18 84 -10 24 -23 34 -52 42 -21 6
-43 11 -50 11 -6 0 -21 12 -32 26 -17 22 -21 41 -21 105 l0 79 349 0 c309 0
350 -2 355 -16 3 -9 6 -126 6 -260 l0 -244 -796 0 -796 0 -66 33 c-87 42 -168
123 -215 214 -39 75 -67 103 -102 103 -35 0 -63 -28 -102 -103 -45 -88 -127
-171 -209 -212 l-59 -30 -903 -5 -904 -5 -25 -29 c-29 -35 -25 -69 13 -103
l25 -23 896 0 895 0 62 -32 c83 -44 164 -127 216 -221 72 -132 115 -131 192 3
61 107 103 150 198 206 l75 44 802 0 803 0 0 -219 c0 -206 1 -220 21 -245 27
-34 71 -35 105 -1 l24 25 -2 578 -3 578 -25 36 c-46 68 -61 72 -290 78 l-205
5 -5 100 c-4 69 -11 111 -24 135 -94 179 -335 184 -431 9 -24 -45 -29 -67 -33
-151 l-5 -98 -198 0 -199 0 0 78 c0 109 -21 174 -75 227 -82 83 -207 95 -303
32 -84 -58 -112 -119 -112 -255 l0 -82 -202 2 -203 3 -5 105 c-6 115 -17 145
-72 196 -54 52 -96 68 -168 68 -72 0 -114 -16 -168 -68 -55 -51 -66 -81 -72
-196 l-5 -105 -202 -3 -203 -2 0 82 c0 136 -28 197 -112 255 -96 63 -221 51
-303 -32 -54 -53 -75 -118 -75 -227 l0 -78 -199 0 -198 0 -6 99 c-4 84 -9 108
-33 151 -53 97 -175 151 -274 121z m122 -170 c32 -29 33 -31 33 -113 l0 -83
-92 -3 -93 -3 0 83 c0 89 13 122 54 138 38 16 65 10 98 -19z m877 15 c38 -20
51 -55 51 -142 l0 -75 -92 3 -93 3 -3 70 c-3 51 1 79 13 101 27 51 73 66 124
40z m919 -22 c19 -22 22 -36 22 -110 l0 -84 -90 0 -90 0 0 83 c0 88 12 120 54
137 32 14 79 3 104 -26z m866 25 c40 -19 58 -65 54 -144 l-3 -70 -92 -3 -93
-3 0 78 c1 85 13 118 51 139 30 16 51 17 83 3z m924 -24 c19 -23 22 -37 22
-111 l0 -85 -92 3 -93 3 0 83 c0 82 1 84 34 114 28 25 39 29 70 24 21 -3 45
-16 59 -31z m-1370 -821 c23 -28 64 -66 91 -85 28 -19 50 -36 50 -39 0 -3 -24
-23 -54 -44 -30 -22 -74 -64 -97 -94 l-42 -54 -30 38 c-39 49 -103 110 -138
132 -16 9 -28 19 -28 22 1 3 26 23 57 45 31 22 74 64 97 92 22 29 43 49 46 45
4 -4 25 -30 48 -58z"/>
<path d="M4383 3670 c-12 -5 -37 -39 -59 -80 -41 -79 -86 -122 -173 -169 -62
-32 -71 -45 -71 -90 0 -33 17 -50 88 -85 66 -33 115 -83 157 -161 61 -114 116
-114 178 0 49 90 75 116 158 160 38 20 73 44 79 55 27 50 3 88 -78 129 -64 33
-118 86 -158 158 -34 60 -66 94 -89 92 -5 0 -20 -4 -32 -9z m80 -382 l-49 -49
-50 50 -50 50 49 50 50 49 49 -50 50 -51 -49 -49z"/>
<path d="M960 3123 c-20 -26 -21 -34 -18 -371 l3 -344 24 -19 c32 -26 73 -24
99 4 20 22 22 33 22 165 l0 142 145 0 145 0 0 -140 c0 -136 1 -142 25 -165 30
-30 64 -32 99 -4 l26 20 0 350 c0 336 -1 350 -20 369 -30 30 -83 27 -109 -6
-19 -24 -21 -40 -21 -150 l0 -124 -145 0 -145 0 0 130 c0 117 -2 132 -20 150
-30 30 -83 27 -110 -7z"/>
<path d="M1921 3133 c-22 -19 -271 -657 -271 -694 0 -28 44 -69 73 -69 37 0
64 28 91 95 l24 60 143 0 142 0 22 -59 c24 -65 54 -96 92 -96 28 0 73 41 73
67 0 10 -56 167 -125 348 -83 220 -131 336 -146 348 -12 9 -38 17 -59 17 -21
0 -47 -8 -59 -17z m102 -342 c20 -54 37 -101 37 -104 0 -4 -36 -7 -81 -7 -61
0 -80 3 -77 13 37 104 74 197 78 197 3 0 22 -44 43 -99z"/>
<path d="M2450 3130 c-19 -19 -20 -33 -20 -368 l0 -349 23 -21 c29 -27 67 -28
98 -3 22 18 24 27 27 140 l4 121 81 0 c94 0 144 18 195 70 53 53 76 106 76
180 0 74 -23 127 -76 180 -59 59 -96 70 -250 70 -125 0 -140 -2 -158 -20z
m301 -158 c26 -24 32 -36 32 -72 0 -36 -6 -48 -32 -72 -28 -25 -39 -28 -101
-28 l-70 0 0 100 0 100 70 0 c62 0 73 -3 101 -28z"/>
<path d="M3067 3132 c-15 -17 -17 -57 -17 -370 0 -339 1 -353 20 -372 22 -22
60 -26 90 -10 28 15 40 65 40 171 l0 99 82 0 c97 0 148 20 203 82 49 54 65 95
65 170 0 77 -26 134 -85 186 -59 52 -100 62 -252 62 -113 0 -132 -2 -146 -18z
m304 -161 c23 -23 29 -38 29 -71 0 -33 -6 -48 -29 -71 -27 -27 -35 -29 -100
-29 l-71 0 0 100 0 100 71 0 c65 0 73 -2 100 -29z"/>
<path d="M3645 3130 c-35 -39 -24 -70 83 -233 l102 -156 0 -165 c0 -157 1
-166 22 -186 40 -37 98 -22 117 31 6 18 11 98 11 182 l0 149 95 146 c53 80 98
156 101 169 8 30 -19 71 -53 79 -48 13 -71 -7 -147 -125 l-74 -115 -72 110
c-39 60 -79 115 -88 122 -25 19 -76 15 -97 -8z"/>
<path d="M4999 3071 l-24 -19 -5 -1164 -5 -1163 -813 -5 -814 -5 -19 -24 c-26
-32 -24 -67 6 -96 l24 -25 811 0 c707 0 815 2 847 15 50 21 72 42 94 90 18 38
19 96 19 1203 l0 1163 -25 24 c-29 30 -64 32 -96 6z"/>
<path d="M344 2164 c-12 -3 -30 -14 -40 -26 -18 -18 -19 -45 -22 -342 -2 -204
1 -334 7 -357 17 -56 38 -61 207 -57 130 3 154 6 190 25 143 76 179 271 71
385 -25 27 -26 29 -11 64 19 46 20 131 1 175 -18 44 -72 98 -117 117 -35 15
-241 26 -286 16z m246 -169 c30 -27 26 -79 -7 -105 -22 -17 -38 -20 -87 -18
l-61 3 -3 59 c-5 88 -3 90 74 83 42 -3 72 -11 84 -22z m51 -304 c37 -38 39
-88 5 -128 -23 -27 -28 -28 -118 -28 l-93 0 -3 93 -3 92 91 0 c88 0 93 -1 121
-29z"/>
<path d="M1003 2159 c-52 -19 -53 -29 -53 -382 0 -268 3 -333 15 -356 23 -46
66 -54 109 -20 l26 20 0 348 c0 289 -2 350 -15 368 -16 23 -52 33 -82 22z"/>
<path d="M1280 2158 c-48 -26 -50 -41 -50 -386 0 -264 3 -328 15 -351 23 -46
66 -54 108 -21 25 20 26 26 29 132 l3 112 113 -127 c111 -125 139 -146 181
-132 28 9 54 60 45 88 -4 12 -43 63 -88 115 -45 51 -82 96 -84 101 -2 5 9 12
23 15 36 9 102 72 127 120 59 114 -2 270 -127 322 -54 22 -260 31 -295 12z
m256 -163 c52 -34 53 -100 1 -138 -19 -15 -43 -20 -89 -21 l-63 -1 -3 79 c-4
109 -4 110 69 103 33 -3 71 -13 85 -22z"/>
<path d="M1794 2160 c-26 -10 -54 -48 -54 -71 0 -9 9 -28 20 -42 18 -23 29
-26 88 -29 l67 -3 3 -297 2 -297 26 -20 c33 -26 65 -27 95 -2 l24 19 3 301 3
301 69 0 c60 0 71 3 84 22 21 30 20 71 -3 99 -19 24 -23 24 -213 26 -106 1
-203 -2 -214 -7z"/>
<path d="M2393 2162 c-51 -8 -53 -19 -53 -393 l0 -348 26 -20 c43 -34 86 -26
109 20 11 20 15 64 15 159 l0 130 145 0 145 0 0 -144 c0 -144 0 -145 26 -165
15 -12 36 -21 48 -21 27 0 64 33 71 63 3 12 5 169 3 349 -3 321 -3 328 -25
349 -26 27 -77 28 -104 3 -17 -15 -19 -32 -19 -151 l0 -133 -145 0 -145 0 0
124 c0 108 -3 126 -20 148 -21 28 -42 36 -77 30z"/>
<path d="M3113 2163 c-52 -10 -53 -21 -53 -394 l0 -348 28 -21 c25 -21 35 -22
167 -18 128 4 145 6 191 30 67 35 137 114 165 186 27 71 37 212 19 291 -24
108 -88 199 -169 241 -65 33 -256 51 -348 33z m281 -171 c38 -22 73 -72 87
-126 16 -60 7 -183 -18 -231 -41 -79 -88 -105 -189 -105 l-64 0 0 246 0 247
77 -7 c45 -3 89 -13 107 -24z"/>
<path d="M3994 2162 c-12 -2 -31 -13 -43 -25 -19 -21 -258 -630 -262 -666 -3
-35 2 -51 23 -71 48 -44 103 -12 138 80 l22 60 143 0 142 0 23 -61 c25 -70 50
-99 84 -99 36 0 76 37 76 70 0 39 -236 659 -261 686 -22 23 -49 32 -85 26z
m64 -362 l39 -105 -38 -3 c-21 -2 -58 -2 -83 0 l-44 3 40 108 c23 59 42 106
43 105 2 -2 21 -50 43 -108z"/>
<path d="M4334 2159 c-26 -9 -54 -46 -54 -70 0 -9 45 -86 100 -172 l100 -155
0 -156 c0 -118 4 -164 15 -185 23 -46 66 -54 109 -20 l26 20 0 165 0 165 102
156 c107 163 118 194 83 233 -18 20 -58 26 -90 14 -9 -4 -50 -58 -91 -122
l-75 -115 -75 116 c-78 120 -105 143 -150 126z"/>
<path d="M22 1287 c-21 -23 -22 -30 -22 -295 0 -223 3 -279 15 -309 20 -48 41
-71 87 -94 32 -17 60 -19 214 -19 l177 0 66 -36 c140 -77 197 -136 280 -292
80 -151 123 -150 206 8 67 126 167 229 277 282 l77 38 824 0 c819 0 824 0 851
21 36 28 36 80 0 108 -27 21 -32 21 -857 21 l-830 0 -76 42 c-110 60 -204 158
-266 278 -86 163 -125 161 -215 -9 -67 -128 -134 -198 -251 -264 l-84 -47
-170 2 -170 3 -3 270 c-2 260 -3 270 -24 292 -29 31 -77 31 -106 0z m1044
-538 c16 -15 54 -45 85 -66 l57 -39 -45 -29 c-61 -38 -141 -118 -185 -183
l-36 -53 -45 63 c-53 74 -91 112 -168 165 l-57 39 43 27 c68 44 132 105 181
173 l46 64 48 -67 c26 -38 61 -80 76 -94z"/>
</g>
</svg>
